# xmcd
#
# Track frame offsets:
# 150
# 14192
# 32995
# 46105
# 58685
# 70167
# 79547
# 88170
# 106805
# 117005
# 129897
# 145542
# 157985
# 167637
#
# Disc length: 2366 seconds
#
#
# Revision: 0
# Processed by: cddbd v1.5.1PL2 Copyright (c) Steve Scherf et al.
# Submitted via: FreeRIP 2.944 
#
DISCID=ac093c0e
DTITLE=Mococa e Moraci - Os grandes sucessos
DYEAR=1900
DGENRE=Sertanejo
TTITLE0=Cantinho colorido
TTITLE1=Meu martírio
TTITLE2=Lágrimas da Alma
TTITLE3=Voltei porque te amo
TTITLE4=Já não importa
TTITLE5=Último encontro
TTITLE6=Taça da saudade
TTITLE7=Arrependimento
TTITLE8=Abandonado
TTITLE9=Meus dias felizes
TTITLE10=Tu só tu
TTITLE11=Pombinha mensageira
TTITLE12=Alma de boêmio
TTITLE13=Bendita hora
EXTD=
EXTT0=
EXTT1=
EXTT2=
EXTT3=
EXTT4=
EXTT5=
EXTT6=
EXTT7=
EXTT8=
EXTT9=
EXTT10=
EXTT11=
EXTT12=
EXTT13=
PLAYORDER=
